PathFileType	4	(X/Y/Z)	C:\Users\Basilio\Documents\Thesis Gigler\squatting_fais\c3dfiles\073\SLS_back_pre5\markers_experimental.trc
DataRate	CameraRate	NumFrames	NumMarkers	Units	OrigDataRate	OrigDataStartFrame	OrigNumFrames
200.000000	200.000000	4	61	mm	200.000000	1346	1539
Frame#	Time	FHD			LBHD			RBHD			C7			T10			CLAV			LSHO			LUUPA			LMUPA			LDUPA			LLEP			LMEP			LRAD			LUL			LRFIN			RSHO			RUPA1			RMUPA			RDUPA			RLEP			RMEP			RUL			RUFIN			LASI			RASI			USACR			LSACR			RSACR			LTHI1			LTHI2			LTHI3			LTHI4			LLFC			LTIB1			LTIB2			LTIB3			LTIB4			LLMAL			LMMAL			LHEE			LMT1			LMT2			LMT5			RTHI			RTHI2			RTHI3			RTHI4			RLFC			RMFC			RTIB1			RTIB2			RTIB3			RTIB4			RLMAL			RMMAL			RHEE			RMT1			RMT2			RMT5			LMFC			RRAD			
		X1	Y1	Z1	X2	Y2	Z2	X3	Y3	Z3	X4	Y4	Z4	X5	Y5	Z5	X6	Y6	Z6	X7	Y7	Z7	X8	Y8	Z8	X9	Y9	Z9	X10	Y10	Z10	X11	Y11	Z11	X12	Y12	Z12	X13	Y13	Z13	X14	Y14	Z14	X15	Y15	Z15	X16	Y16	Z16	X17	Y17	Z17	X18	Y18	Z18	X19	Y19	Z19	X20	Y20	Z20	X21	Y21	Z21	X22	Y22	Z22	X23	Y23	Z23	X24	Y24	Z24	X25	Y25	Z25	X26	Y26	Z26	X27	Y27	Z27	X28	Y28	Z28	X29	Y29	Z29	X30	Y30	Z30	X31	Y31	Z31	X32	Y32	Z32	X33	Y33	Z33	X34	Y34	Z34	X35	Y35	Z35	X36	Y36	Z36	X37	Y37	Z37	X38	Y38	Z38	X39	Y39	Z39	X40	Y40	Z40	X41	Y41	Z41	X42	Y42	Z42	X43	Y43	Z43	X44	Y44	Z44	X45	Y45	Z45	X46	Y46	Z46	X47	Y47	Z47	X48	Y48	Z48	X49	Y49	Z49	X50	Y50	Z50	X51	Y51	Z51	X52	Y52	Z52	X53	Y53	Z53	X54	Y54	Z54	X55	Y55	Z55	X56	Y56	Z56	X57	Y57	Z57	X58	Y58	Z58	X59	Y59	Z59	X60	Y60	Z60	X61	Y61	Z61	

1347	6.73	-152.4029998779297	1690.325073242188	-702.2915039062501	-287.8424072265626	1662.042846679688	-724.1582031250001	-306.6777343750001	1635.20263671875	-591.4904174804689	-340.8038635253907	1535.351318359375	-660.1773681640626	-394.9584045410157	1205.138793945313	-709.0935668945314	-215.2757110595704	1453.093383789063	-673.0818481445314	-253.6544342041016	1513.941284179688	-810.127868652344	-177.5789642333985	1442.535766601563	-914.5415649414065	-134.3769073486328	1458.477661132813	-893.0576171875002	-116.9263458251953	1413.711059570313	-930.9359130859377	-14.49158477783203	1383.55224609375	-942.2811279296877	-20.13494682312012	1323.68798828125	-904.0336914062502	241.6680908203126	1394.36669921875	-819.8013305664065	248.0518341064454	1397.239379882813	-893.9221191406252	324.3302612304688	1400.2177734375	-809.5291137695315	-227.1320037841797	1471.157836914063	-520.7898559570314	-143.0095672607422	1342.356689453125	-441.2097167968751	-101.3291091918946	1361.666137695313	-454.8234252929689	-83.61194610595705	1306.279907226563	-440.5484924316407	5.173047542572022	1278.996948242188	-444.8916320800782	-6.551833152770998	1233.730834960938	-514.6531372070314	263.2256774902344	1314.672485351563	-503.6029052734376	338.3951416015626	1335.762939453125	-584.9281005859376	-242.0567321777344	1042.924926757813	-854.0496826171877	-229.2073974609376	1028.006103515625	-604.0081787109376	-416.2657165527345	1103.721923828125	-718.6231689453126	-430.597137451172	1077.103759765625	-748.3055419921876	-433.4557495117189	1072.343627929688	-692.3200683593751	-245.6572570800782	720.7424926757814	-926.603942871094	-197.5027313232422	650.6209716796876	-916.7899169921877	-154.9360504150391	659.5582275390626	-892.826354980469	-219.5132446289063	594.7449340820314	-909.2884521484377	-227.0868072509766	548.6521606445314	-910.204528808594	-363.2458496093751	423.4561157226564	-847.2234497070315	-426.9931640625001	463.6501770019532	-890.5986938476565	-416.9961242675782	424.7030029296876	-872.3855590820315	-485.5015258789064	396.3676757812501	-831.0793457031252	-619.5213012695314	414.1502380371095	-840.883728027344	-581.2528686523439	410.6002197265626	-758.4284667968751	-653.9961547851564	466.3304748535157	-792.6284790039065	-611.1030273437501	247.4004974365235	-755.3908081054689	-618.3039550781251	243.7330169677735	-793.8836669921877	-657.3394775390626	272.0225524902344	-841.3397216796877	-347.5340576171876	805.7283325195315	-548.3183593750001	-318.5020141601563	746.4143066406251	-548.4399414062501	-284.9539184570313	744.7546386718751	-549.1541748046876	-351.9983825683594	674.0769042968751	-575.1734619140626	-349.4879455566407	521.5213012695314	-599.0477905273439	-330.9025878906251	517.5261230468751	-729.1215820312501	-297.8737487792969	364.1293029785157	-691.4899902343751	-331.1407775878907	277.6602478027344	-636.1020507812501	-300.3843688964844	279.1475830078126	-672.8894653320314	-313.2456054687501	236.923080444336	-711.5306396484376	-364.3400268554688	96.65812683105472	-679.6552734375001	-352.1994628906251	133.3595428466797	-760.7468261718751	-431.398406982422	83.1916961669922	-741.4007568359376	-206.7942504882813	59.02282333374025	-756.8598632812501	-206.4291992187501	51.58683395385744	-715.7710571289064	-248.9569091796876	32.15227127075196	-668.4765625000001	-218.0314331054688	539.5014648437501	-774.1566162109377	247.2785186767579	1314.333374023438	-576.6550292968751	
1348	6.735	-152.6575775146485	1690.320190429688	-702.2596435546876	-287.8701171875001	1662.033325195313	-724.1853027343751	-306.7038879394532	1635.18310546875	-591.5129394531251	-340.8095092773438	1535.378295898438	-660.1985473632814	-394.9732055664064	1205.141479492188	-709.0409545898439	-215.2861785888672	1453.083740234375	-673.0933227539064	-253.6915283203126	1513.945922851563	-810.1382446289065	-177.6758117675782	1442.554443359375	-914.5599365234377	-134.4209594726563	1458.47802734375	-893.0725097656252	-116.9759292602539	1413.754150390625	-930.9602050781252	-14.56027126312256	1383.569458007813	-942.3649902343752	-20.2144775390625	1323.69921875	-904.0747680664065	241.5725708007813	1394.451416015625	-819.884948730469	247.9545288085938	1397.319946289063	-894.027770996094	324.2308349609376	1400.3203125	-809.5949707031252	-227.1392974853516	1471.132080078125	-520.8768310546876	-143.0110473632813	1342.361206054688	-441.2589111328126	-101.3670806884766	1361.651977539063	-454.8753051757814	-83.62500000000001	1306.24462890625	-440.6033020019532	5.105553627014161	1278.962036132813	-445.0025939941407	-6.615281581878664	1233.672485351563	-514.7142333984376	263.1775817871094	1314.546630859375	-503.7164916992189	338.2905273437501	1335.648559570313	-585.0883178710939	-242.141098022461	1042.922119140625	-854.087829589844	-229.2028350830079	1027.985107421875	-603.9993286132814	-416.3675842285157	1103.728881835938	-718.6427612304689	-430.2828674316407	1076.9892578125	-748.2859497070314	-433.362762451172	1072.325317382813	-692.2849121093751	-245.8475189208985	720.6270751953126	-926.6607055664065	-197.6577148437501	650.6987304687501	-917.0196533203127	-155.1097259521485	659.5982666015626	-893.114440917969	-219.7711791992188	594.7703857421876	-909.5057373046877	-227.3041381835938	548.7555541992189	-910.4971923828127	-363.4352111816407	423.5376586914064	-847.359802246094	-427.2296752929689	463.700408935547	-890.7844238281252	-417.098602294922	424.7942504882814	-872.4756469726565	-485.6006774902345	396.3949584960939	-831.1712646484377	-619.6651611328126	414.1601562500001	-840.938659667969	-581.3585205078126	410.5499572753907	-758.5418090820314	-654.1122436523439	466.300262451172	-792.583190917969	-611.1376342773439	247.3733978271485	-755.5083007812501	-618.3637084960939	243.7382049560547	-794.0007324218752	-657.4545898437501	272.0012817382813	-841.4378662109377	-347.5014953613282	805.7111816406252	-548.3275756835939	-318.4970703125001	746.3991088867189	-548.4600219726564	-284.9351501464844	744.7622680664064	-549.2086791992189	-352.0249328613282	674.0456542968751	-575.2254028320314	-349.4460754394532	521.5103759765626	-599.0948486328126	-330.9782104492188	517.1251220703126	-729.1377563476564	-297.8411560058594	364.1341247558594	-691.5386352539064	-331.0808105468751	277.6435852050782	-636.1736450195314	-300.3616333007813	279.1419067382813	-672.9472045898439	-313.2378540039063	236.9339141845704	-711.5748291015626	-364.3036499023438	96.70152282714847	-679.6802368164064	-352.1612854003907	133.3407745361328	-760.7994384765626	-431.3720703125001	83.19137573242189	-741.3963623046876	-206.8435363769532	58.9784507751465	-756.9387207031251	-206.4766845703126	51.55859756469728	-715.8410034179689	-248.9602050781251	32.18798446655274	-668.4782714843751	-218.0581512451172	539.5203247070314	-774.4378662109377	247.3053131103516	1314.257080078125	-576.8735351562501	
1349	6.74	-152.8001708984375	1690.308227539063	-702.1929321289064	-287.9041137695313	1662.098510742188	-724.1861572265626	-306.7494201660157	1635.164794921875	-591.5327148437501	-340.8351745605469	1535.409301757813	-660.2174682617189	-395.0566711425782	1205.14599609375	-708.9989624023439	-215.3115692138672	1453.095947265625	-673.0651855468751	-253.7560119628907	1513.967651367188	-810.1580200195315	-177.751953125	1442.573486328125	-914.576843261719	-134.5894165039063	1458.523193359375	-893.1089477539065	-117.157470703125	1413.765380859375	-930.9984130859377	-14.66802215576172	1383.649780273438	-942.3997802734377	-20.22869682312012	1323.749633789063	-904.1008300781252	241.4780578613282	1394.540649414063	-819.9392700195315	247.8101806640626	1397.378173828125	-894.0603027343752	324.2037048339844	1400.384643554688	-809.6690063476565	-227.1380157470704	1471.139282226563	-520.8893432617189	-143.0596008300782	1342.348266601563	-441.3053588867189	-101.3794326782227	1361.630004882813	-454.940643310547	-83.61256408691408	1306.1923828125	-440.7078552246095	5.065247535705567	1278.892333984375	-445.077850341797	-6.661235809326174	1233.612426757813	-514.7860717773439	263.1466064453126	1314.447998046875	-503.8806152343751	338.2213439941407	1335.581298828125	-585.2573852539064	-242.1775207519532	1042.94921875	-854.1264648437502	-229.218490600586	1027.9736328125	-604.0327758789064	-416.3702697753907	1103.724487304688	-718.6149902343751	-430.8009643554689	1077.106201171875	-748.2795410156251	-433.5108032226564	1072.354736328125	-692.2459716796876	-246.0062713623047	720.8451538085939	-926.8590087890627	-197.8866729736329	650.7483520507814	-917.2752685546877	-155.2372741699219	659.6646728515626	-893.358581542969	-219.9237060546876	594.8590698242189	-909.7307739257815	-227.4554138183594	548.8240356445314	-910.7437744140627	-363.4406433105469	423.5589904785157	-847.5631103515627	-427.3594970703126	463.7543334960939	-890.9967041015627	-417.5689697265626	424.9303283691407	-872.8654785156252	-485.7086181640626	396.4352416992189	-831.2899169921877	-619.8403930664064	414.1770629882814	-840.9923095703127	-581.4597167968751	410.5118103027345	-758.6063232421876	-654.2089843750001	466.2772216796876	-792.6280517578127	-611.1776123046876	247.3538665771485	-755.5966186523439	-618.4512329101564	243.7023925781251	-794.237487792969	-657.5414428710939	271.9993896484376	-841.5153808593752	-347.5013732910157	805.6868896484377	-548.4055175781251	-318.4778747558594	746.3740234375001	-548.5451049804689	-284.8866271972657	744.7106323242189	-549.2833251953126	-351.9765319824219	674.0189819335939	-575.2965087890626	-349.4285888671876	521.5079956054689	-599.1528320312501	-330.9301757812501	517.4917602539064	-729.2394409179689	-297.8142089843751	364.1439208984376	-691.6365966796876	-331.0040893554688	277.6156616210938	-636.2418823242189	-300.3567504882813	279.1593017578126	-673.0301513671876	-313.2120056152344	236.9222412109376	-711.6865844726564	-364.3111267089844	96.74927520751956	-679.7127685546876	-352.2297058105469	133.3235626220703	-760.8693237304689	-431.382293701172	83.19889068603517	-741.4620971679689	-206.8591461181641	58.8989944458008	-756.9608154296876	-206.4307250976563	51.52600860595705	-715.8427734375001	-248.9561920166016	32.20281982421876	-668.4785766601564	-218.1286010742188	539.5267944335939	-774.765563964844	247.2715911865235	1314.149169921875	-576.9781494140626	
1350	6.745	-152.4333648681641	1690.421875	-702.2384643554689	-287.9193725585938	1662.079956054688	-724.2607421875001	-306.8000793457032	1635.157958984375	-591.6102294921876	-340.8520202636719	1535.405639648438	-660.2463378906251	-395.1251220703126	1205.166870117188	-709.0025024414064	-215.3946533203126	1453.076538085938	-673.1146240234376	-253.7748107910157	1513.95458984375	-810.1596679687502	-177.8882446289063	1442.585815429688	-914.6077270507815	-134.6140289306641	1458.539428710938	-893.1499633789065	-117.2345352172852	1413.787231445313	-931.0201416015627	-14.71320056915284	1383.673706054688	-942.4339599609377	-20.32004356384278	1323.768920898438	-904.185241699219	241.4001922607422	1394.621337890625	-819.9909667968752	247.7483062744141	1397.451538085938	-894.1329345703127	324.1234130859376	1400.46044921875	-809.7132568359377	-227.134994506836	1471.161743164063	-520.9308471679689	-143.0473175048828	1342.325439453125	-441.375946044922	-101.3875579833985	1361.590576171875	-454.984100341797	-83.65995025634767	1306.169311523438	-440.7413330078126	5.045074939727784	1278.864624023438	-445.1567993164064	-6.701454639434816	1233.575805664063	-514.8644409179689	263.1478881835938	1314.384887695313	-504.0816345214845	338.2152404785157	1335.439208984375	-585.4204711914064	-242.290512084961	1042.9638671875	-854.1303710937502	-229.2451629638672	1027.963745117188	-604.0708618164064	-416.3672790527345	1103.722900390625	-718.6165771484376	-430.4700012207032	1077.0185546875	-748.2347412109376	-433.4431762695314	1072.31396484375	-692.2366333007814	-246.2934570312501	720.9348754882814	-927.2476806640627	-198.0579528808594	650.8334350585939	-917.4753417968752	-155.4004364013672	659.7377319335939	-893.619567871094	-220.1538391113282	594.9185180664064	-909.9462890625002	-227.6637878417969	548.9030761718751	-911.009460449219	-363.5859680175782	423.603973388672	-847.7034912109377	-427.499969482422	463.8017578125001	-891.1472778320315	-417.6416625976564	424.9769897460939	-873.0422973632815	-485.8244018554689	396.4245910644532	-831.5103759765627	-619.9126586914064	414.2062377929689	-841.055358886719	-581.5057373046876	410.481414794922	-758.6340332031251	-654.3319091796876	466.2528686523439	-792.611755371094	-611.2595825195314	247.3140258789063	-755.8508911132814	-618.5568847656251	243.7174987792969	-794.5021972656252	-657.6729125976564	272.0396728515626	-841.6394653320315	-347.4737548828126	805.6735839843752	-548.4042358398439	-318.4174804687501	746.3764648437501	-548.5586547851564	-284.8453369140626	744.7009277343751	-549.3391723632814	-351.9601745605469	674.0071411132814	-575.3173828125001	-349.3833312988282	521.5027465820314	-599.1965332031251	-331.0979003906251	517.0671386718751	-729.3802490234376	-297.8838195800782	364.1341857910157	-691.7319335937501	-330.9222412109376	277.6274719238282	-636.2744750976564	-300.3161315917969	279.1809387207032	-673.1301269531251	-313.2232666015626	236.9539489746094	-711.7588500976564	-364.2914428710938	96.75287628173831	-679.8204956054689	-352.1682434082032	133.3504180908203	-760.9797973632814	-431.3817443847657	83.22712707519533	-741.4553833007814	-206.8745422363282	58.80968093872072	-757.0032958984376	-206.4398956298829	51.49900436401369	-715.9202270507814	-248.954818725586	32.20293045043946	-668.4783325195314	-218.2010955810547	539.5096435546876	-775.047790527344	247.2031860351563	1314.09619140625	-577.0581665039064	
